<?xml version="1.0" encoding="utf-8"?>
<svg viewBox="0 0 500 500" xmlns="http://www.w3.org/2000/svg">
  <ellipse style="fill: rgb(216, 216, 216); stroke: rgb(0, 0, 0);" cx="217.269" cy="200.621" rx="53.612" ry="54.458"/>
  <path style="fill: rgb(216, 216, 216); stroke: rgb(0, 0, 0);" d="M 193.002 172.686 C 188.148 171.068 184.13 179.551 182.844 183.409 C 182.406 184.724 181.238 189.703 182.28 190.745 C 191.461 199.926 211.297 191.073 216.14 186.23 C 217.824 184.546 210.146 181.365 209.932 181.151 C 204.3 175.519 189.403 177.201 182.844 177.201"/>
  <path style="fill: rgb(216, 216, 216); stroke: rgb(0, 0, 0);" d="M 236.456 174.379 C 236.456 174.614 236.708 176.968 235.892 177.201 C 228.261 179.381 220.349 180.893 215.011 186.23 C 210.024 191.218 220.449 195.26 223.476 195.26 C 235.673 195.26 241.19 193.457 250 189.052 C 252.217 187.943 249.654 185.32 248.871 184.537 C 245.258 180.924 244.574 180.023 239.278 180.023 C 235.79 180.023 231.652 179.458 228.555 179.458"/>
  <path style="fill: rgb(216, 216, 216); stroke: rgb(0, 0, 0);" d="M 193.567 182.844 C 196.662 182.844 198.927 183.409 202.032 183.409"/>
  <path style="fill: rgb(216, 216, 216); stroke: rgb(0, 0, 0);" d="M 226.862 186.23 C 230.625 186.23 234.387 186.23 238.149 186.23"/>
  <path style="fill: rgb(216, 216, 216); stroke: rgb(0, 0, 0);" d="M 216.704 213.318 C 215.31 214.248 210.51 228.844 213.318 230.248 C 218.522 232.85 233.951 235.733 240.406 232.506 C 245.095 230.161 252.822 228.173 252.822 222.348 C 252.822 221.677 253.204 216.895 252.822 216.704 C 249.189 214.888 234.314 214.785 230.248 216.14 C 224.566 218.034 220.076 218.397 213.318 218.397"/>
  <ellipse style="fill: rgb(216, 216, 216); stroke: rgb(0, 0, 0);" cx="178.047" cy="170.429" rx="11.569" ry="12.98"/>
  <ellipse style="fill: rgb(216, 216, 216); stroke: rgb(0, 0, 0);" cx="191.027" cy="150.395" rx="7.054" ry="11.569"/>
  <ellipse style="fill: rgb(216, 216, 216); stroke: rgb(0, 0, 0);" cx="181.998" cy="153.499" rx="12.133" ry="11.287"/>
  <ellipse style="fill: rgb(216, 216, 216); stroke: rgb(0, 0, 0);" cx="219.526" cy="154.345" rx="23.702" ry="9.876"/>
  <ellipse style="fill: rgb(216, 216, 216); stroke: rgb(0, 0, 0);" cx="214.447" cy="140.237" rx="21.445" ry="7.619"/>
  <ellipse style="fill: rgb(216, 216, 216); stroke: rgb(0, 0, 0);" cx="247.743" cy="150.395" rx="11.851" ry="18.341"/>
  <ellipse style="fill: rgb(216, 216, 216); stroke: rgb(0, 0, 0);" cx="265.801" cy="164.786" rx="10.158" ry="17.494"/>
  <ellipse style="fill: rgb(216, 216, 216); stroke: rgb(0, 0, 0);" cx="261.287" cy="144.187" rx="7.336" ry="11.569"/>
  <ellipse style="fill: rgb(216, 216, 216); stroke: rgb(0, 0, 0);" cx="273.702" cy="188.205" rx="7.336" ry="9.312"/>
  <ellipse style="fill: rgb(216, 216, 216); stroke: rgb(0, 0, 0);" cx="283.296" cy="181.998" rx="9.594" ry="16.084"/>
  <ellipse style="fill: rgb(216, 216, 216); stroke: rgb(0, 0, 0);" cx="164.503" cy="170.993" rx="9.312" ry="19.187"/>
  <ellipse style="fill: rgb(216, 216, 216); stroke: rgb(0, 0, 0);" cx="163.093" cy="200.621" rx="8.465" ry="15.519"/>
  <path style="fill: rgb(216, 216, 216); stroke: rgb(0, 0, 0);" d="M 227.427 217.833 C 227.427 220.341 227.006 220.142 227.991 221.783 C 229.168 223.745 228.706 224.343 229.684 226.298 C 231.117 229.164 235.581 222.474 237.585 223.476 C 239.217 224.292 241.073 228.222 243.792 226.862 C 245.67 225.924 247.178 215.218 247.178 213.318"/>
</svg>